<?xml version="1.0" encoding="utf-8"?>
<!-- Generator: Adobe Illustrator 23.1.0, SVG Export Plug-In . SVG Version: 6.00 Build 0)  -->
<svg version="1.1" id="Layer_1" xmlns="http://www.w3.org/2000/svg" xmlns:xlink="http://www.w3.org/1999/xlink" x="0px" y="0px"
	 viewBox="0 0 400 400" style="enable-background:new 0 0 400 400;" xml:space="preserve">
<style type="text/css">
	.st0{fill:#BE1E2D;stroke:#BE1E2D;stroke-width:6.0016;stroke-miterlimit:10;}
	.st1{fill:#9E1E2F;stroke:#FFFFFF;stroke-width:1.259;stroke-miterlimit:10;}
	.st2{fill:#FFFFFF;}
	.st3{fill:none;stroke:#FFFFFF;stroke-width:6.0016;stroke-miterlimit:10;}
</style>
<circle class="st0" cx="200" cy="201.94" r="194.3"/>
<g>
	<path class="st1" d="M292.47,171.16c2.2,3.75,1.8,8.22,1,17.14c-2.46,27.48-19.99,46.29-26.15,52.72
		c-6.31,6.59-29.62,30.93-67.74,32.32c-41.19,1.51-67.66-24.76-74.18-31.73c-21.92-23.47-35.06-61-23.78-72.1
		c8.51-8.38,22.22,6.87,45.67-2.03c15.87-6.03,23.2-18.19,39.86-17.14c5.71,0.36,9.75,2.1,12,3
		C238.84,169.27,281.78,152.89,292.47,171.16z"/>
	<g>
		<path class="st2" d="M196.21,275.81c-0.49,0-0.98,0-1.47-0.01c-60.93-0.94-90.22-60.16-91.44-62.68
			c-2.89-5.99-11.69-24.22-10.5-49.07c0.52-10.84,2.85-21.47,6.93-31.65c0.52-1.31,2.04-1.91,3.34-1.35l0.01,0.01
			c1.26,0.54,1.82,1.98,1.32,3.25c-3.87,9.65-6.07,19.73-6.57,29.99c-1.13,23.57,7.25,40.93,10,46.64
			c1.16,2.41,29.12,58.95,86.98,59.84c49.89,0.74,78.47-39.89,81.56-44.53c13.67-20.51,15.61-41.44,16.25-48.32
			c1.98-21.36-2.65-39.25-7.28-51.1c-0.49-1.26,0.13-2.68,1.38-3.21l0,0c1.3-0.54,2.8,0.08,3.32,1.39c6.64,17,9.26,35.4,7.6,53.38
			c-0.67,7.19-2.69,29.07-17.07,50.65C277.35,233.85,247.87,275.81,196.21,275.81z"/>
	</g>
</g>
<line class="st3" x1="197.38" y1="273.41" x2="197.75" y2="344.83"/>
<g>
	<path class="st2" d="M267.21,348.91l-138.97-1.41c-1.66-0.02-2.99-1.37-2.97-3.03l0,0c0.02-1.66,1.37-2.99,3.03-2.97l138.97,1.41
		c1.66,0.02,2.99,1.37,2.97,3.03l0,0C270.22,347.59,268.86,348.92,267.21,348.91z"/>
</g>
</svg>
