<?xml version="1.0" encoding="utf-8"?>
<!-- Generator: Adobe Illustrator 23.1.0, SVG Export Plug-In . SVG Version: 6.00 Build 0)  -->
<svg version="1.1" id="Layer_1" xmlns="http://www.w3.org/2000/svg" xmlns:xlink="http://www.w3.org/1999/xlink" x="0px" y="0px"
	 viewBox="0 0 400 400" style="enable-background:new 0 0 400 400;" xml:space="preserve">
<style type="text/css">
	.st0{fill:none;stroke:#FFFFFF;stroke-width:6.0016;stroke-miterlimit:10;}
	.st1{fill:#FFFFFF;}
	.st2{fill:#E27026;stroke:#E27026;stroke-width:5.9152;stroke-miterlimit:10;}
	.st3{fill:#995E37;stroke:#FFFFFF;stroke-width:0.8594;stroke-miterlimit:10;}
	.st4{fill:none;stroke:#FFFFFF;stroke-width:1.7189;stroke-miterlimit:10;}
</style>
<line class="st0" x1="197.38" y1="273.41" x2="197.75" y2="344.83"/>
<g>
	<path class="st1" d="M267.21,348.91l-138.97-1.41c-1.66-0.02-2.99-1.37-2.97-3.03l0,0c0.02-1.66,1.37-2.99,3.03-2.97l138.97,1.41
		c1.66,0.02,2.99,1.37,2.97,3.03l0,0C270.22,347.59,268.86,348.92,267.21,348.91z"/>
</g>
<g>
	<circle class="st2" cx="198.63" cy="201.18" r="191.5"/>
	<path class="st3" d="M282.73,56.51c-30.33-16.01-69.66,12.74-73.73,15.8c-15.74,11.82-23.41,26.07-28.61,35.86
		c-14.98,28.24-16.38,55.29-15.94,70.34c-32.44,21.91-50.28,46.44-59.53,61.74c-10.84,17.92-20.04,33.08-18.8,53.9
		c1.32,22.31,14.47,51.03,42.02,61.23c33.05,12.24,62.93-11.02,68.79-15.59c17.55-13.67,24.46-30.85,30.84-46.6
		c11.29-27.9,12.64-53.74,11.73-71.67c12.27-10.62,29.87-27.06,49.15-49.81c5.22-6.16,7.87-9.3,9.9-12.62
		C316.84,129.12,314.6,73.32,282.73,56.51z"/>
	<line class="st4" x1="242.36" y1="92.5" x2="134.11" y2="285.6"/>
	<line class="st4" x1="188.23" y1="244.05" x2="149.32" y2="317.78"/>
	<line class="st4" x1="238.26" y1="201.18" x2="255.82" y2="169.74"/>
	<line class="st4" x1="233" y1="167.4" x2="276.88" y2="81.38"/>
</g>
</svg>
