<?xml version="1.0" encoding="utf-8"?>
<!-- Generator: Adobe Illustrator 23.1.0, SVG Export Plug-In . SVG Version: 6.00 Build 0)  -->
<svg version="1.1" id="Layer_1" xmlns="http://www.w3.org/2000/svg" xmlns:xlink="http://www.w3.org/1999/xlink" x="0px" y="0px"
	 viewBox="0 0 400 400" style="enable-background:new 0 0 400 400;" xml:space="preserve">
<style type="text/css">
	.st0{fill:#00A651;stroke:#00A651;stroke-width:5.9622;stroke-miterlimit:10;}
	.st1{fill:#FFFFFF;}
	.st2{fill:#51B961;}
</style>
<g>
	<circle class="st0" cx="200.48" cy="200.66" r="193.02"/>
	<path class="st1" d="M173.76,169.74c49.12,45.16,61.49,124.38,26.75,192.7c2.31-12.45,14.36-83.87-33.15-150.16
		c-43.86-61.2-107.83-75.26-121.88-78.01C55.15,132.75,123.14,123.2,173.76,169.74z"/>
	<path class="st1" d="M262.92,163.52c-39.88,62.77-36.5,126.29-34.43,147.54c17.03-7.41,59.3-28.57,89.04-76.36
		c40.54-65.15,28.03-131.97,24.86-146.87C323.3,98.82,289.39,121.86,262.92,163.52z"/>
	<path class="st2" d="M258.83,254.3c-25.78,51.14-55.31,107.67-56,107.32c-0.72-0.36,29.45-61.66,55.48-113.05
		c21.28-41.99,49.6-96.72,50.27-96.38C309.25,152.52,282.94,206.47,258.83,254.3z"/>
	<path class="st1" d="M304.85,243.48"/>
</g>
</svg>
